<mxfile host="app.diagrams.net" modified="2020-03-31T08:34:31.147Z" agent="5.0 (Macintosh; Intel Mac OS X 10_15_4) AppleWebKit/537.36 (KHTML, like Gecko) Chrome/80.0.3987.149 Safari/537.36" etag="Lk0HHUCWHYe3JjbVkJBa" version="12.9.5" type="github">
  <diagram id="jEuXmXIv4p6gIk_5oJhH" name="Page-1">
    <mxGraphModel dx="1261" dy="1900" grid="1" gridSize="10" guides="1" tooltips="1" connect="1" arrows="1" fold="1" page="1" pageScale="1" pageWidth="827" pageHeight="1169" math="0" shadow="0">
      <root>
        <mxCell id="0" />
        <mxCell id="1" parent="0" />
        <mxCell id="WEUfVhvp38oiTWdaOPh4-2" value="" style="rounded=0;whiteSpace=wrap;html=1;" parent="1" vertex="1">
          <mxGeometry x="310" y="-100" width="140" height="140" as="geometry" />
        </mxCell>
        <mxCell id="WEUfVhvp38oiTWdaOPh4-3" value="Utilisateur" style="text;html=1;strokeColor=none;fillColor=none;align=center;verticalAlign=middle;whiteSpace=wrap;rounded=0;" parent="1" vertex="1">
          <mxGeometry x="350" y="-90" width="40" height="20" as="geometry" />
        </mxCell>
        <mxCell id="WEUfVhvp38oiTWdaOPh4-6" value="idUser&lt;br&gt;nomUser&lt;br&gt;prenomUser&lt;br&gt;idAdress" style="text;html=1;strokeColor=none;fillColor=none;align=center;verticalAlign=middle;whiteSpace=wrap;rounded=0;" parent="1" vertex="1">
          <mxGeometry x="350" y="-40" width="40" height="20" as="geometry" />
        </mxCell>
        <mxCell id="UMJbszNfp7T79C8Wnxz_-1" value="" style="rounded=0;whiteSpace=wrap;html=1;" parent="1" vertex="1">
          <mxGeometry x="360" y="390" width="150" height="110" as="geometry" />
        </mxCell>
        <mxCell id="UMJbszNfp7T79C8Wnxz_-2" value="Adresse" style="text;html=1;strokeColor=none;fillColor=none;align=center;verticalAlign=middle;whiteSpace=wrap;rounded=0;" parent="1" vertex="1">
          <mxGeometry x="414" y="400" width="40" height="20" as="geometry" />
        </mxCell>
        <mxCell id="UMJbszNfp7T79C8Wnxz_-5" value="idAdress&lt;br&gt;numRue&lt;br&gt;intitulRue&lt;br&gt;cpVille&lt;br&gt;nomVille" style="text;html=1;strokeColor=none;fillColor=none;align=center;verticalAlign=middle;whiteSpace=wrap;rounded=0;" parent="1" vertex="1">
          <mxGeometry x="415" y="450" width="40" height="20" as="geometry" />
        </mxCell>
        <mxCell id="UMJbszNfp7T79C8Wnxz_-6" value="" style="endArrow=none;html=1;exitX=0.5;exitY=0;exitDx=0;exitDy=0;" parent="1" source="UMJbszNfp7T79C8Wnxz_-1" target="WEUfVhvp38oiTWdaOPh4-2" edge="1">
          <mxGeometry width="50" height="50" relative="1" as="geometry">
            <mxPoint x="447.0500000000002" y="169.5300000000002" as="sourcePoint" />
            <mxPoint x="220" y="-10" as="targetPoint" />
          </mxGeometry>
        </mxCell>
        <mxCell id="UMJbszNfp7T79C8Wnxz_-7" value="" style="rounded=0;whiteSpace=wrap;html=1;" parent="1" vertex="1">
          <mxGeometry y="-217.5" width="140" height="170" as="geometry" />
        </mxCell>
        <mxCell id="UMJbszNfp7T79C8Wnxz_-8" value="Client" style="text;html=1;strokeColor=none;fillColor=none;align=center;verticalAlign=middle;whiteSpace=wrap;rounded=0;" parent="1" vertex="1">
          <mxGeometry x="50" y="-187.5" width="40" height="20" as="geometry" />
        </mxCell>
        <mxCell id="UMJbszNfp7T79C8Wnxz_-11" value="idClient&lt;br&gt;nomClient&lt;br&gt;prenomClient&lt;br&gt;idAdress" style="text;html=1;strokeColor=none;fillColor=none;align=center;verticalAlign=middle;whiteSpace=wrap;rounded=0;" parent="1" vertex="1">
          <mxGeometry x="50" y="-137.5" width="40" height="20" as="geometry" />
        </mxCell>
        <mxCell id="UMJbszNfp7T79C8Wnxz_-13" value="" style="endArrow=none;html=1;exitX=0.679;exitY=0.994;exitDx=0;exitDy=0;entryX=0;entryY=0.75;entryDx=0;entryDy=0;exitPerimeter=0;" parent="1" source="UMJbszNfp7T79C8Wnxz_-7" target="UMJbszNfp7T79C8Wnxz_-1" edge="1">
          <mxGeometry width="50" height="50" relative="1" as="geometry">
            <mxPoint x="160" y="389.01" as="sourcePoint" />
            <mxPoint x="217" y="470" as="targetPoint" />
          </mxGeometry>
        </mxCell>
        <mxCell id="UMJbszNfp7T79C8Wnxz_-14" value="(1,n)" style="text;html=1;strokeColor=none;fillColor=none;align=center;verticalAlign=middle;whiteSpace=wrap;rounded=0;" parent="1" vertex="1">
          <mxGeometry x="430" y="52.5" width="40" height="20" as="geometry" />
        </mxCell>
        <mxCell id="UMJbszNfp7T79C8Wnxz_-19" value="" style="rounded=0;whiteSpace=wrap;html=1;" parent="1" vertex="1">
          <mxGeometry x="720" y="-315" width="120" height="145" as="geometry" />
        </mxCell>
        <mxCell id="UMJbszNfp7T79C8Wnxz_-20" value="Fournisseur" style="text;html=1;strokeColor=none;fillColor=none;align=center;verticalAlign=middle;whiteSpace=wrap;rounded=0;" parent="1" vertex="1">
          <mxGeometry x="760" y="-310" width="40" height="20" as="geometry" />
        </mxCell>
        <mxCell id="UMJbszNfp7T79C8Wnxz_-22" value="idFournisseur&lt;br&gt;nomFournisseur&lt;br&gt;idAdress&lt;br&gt;idPays" style="text;html=1;strokeColor=none;fillColor=none;align=center;verticalAlign=middle;whiteSpace=wrap;rounded=0;" parent="1" vertex="1">
          <mxGeometry x="760" y="-260" width="40" height="20" as="geometry" />
        </mxCell>
        <mxCell id="UMJbszNfp7T79C8Wnxz_-23" value="" style="endArrow=none;html=1;exitX=0.75;exitY=1;exitDx=0;exitDy=0;entryX=0.993;entryY=0.336;entryDx=0;entryDy=0;entryPerimeter=0;" parent="1" source="UMJbszNfp7T79C8Wnxz_-19" target="UMJbszNfp7T79C8Wnxz_-1" edge="1">
          <mxGeometry width="50" height="50" relative="1" as="geometry">
            <mxPoint x="960" y="-320" as="sourcePoint" />
            <mxPoint x="1200.2803738317757" y="310" as="targetPoint" />
          </mxGeometry>
        </mxCell>
        <mxCell id="UMJbszNfp7T79C8Wnxz_-25" value="" style="rounded=0;whiteSpace=wrap;html=1;" parent="1" vertex="1">
          <mxGeometry x="390" y="-555" width="120" height="170" as="geometry" />
        </mxCell>
        <mxCell id="UMJbszNfp7T79C8Wnxz_-26" value="Produit" style="text;html=1;strokeColor=none;fillColor=none;align=center;verticalAlign=middle;whiteSpace=wrap;rounded=0;" parent="1" vertex="1">
          <mxGeometry x="430" y="-545" width="40" height="20" as="geometry" />
        </mxCell>
        <mxCell id="UMJbszNfp7T79C8Wnxz_-29" value="&lt;font style=&quot;vertical-align: inherit&quot;&gt;&lt;font style=&quot;vertical-align: inherit&quot;&gt;idProd &lt;/font&gt;&lt;/font&gt;&lt;br&gt;&lt;font style=&quot;vertical-align: inherit&quot;&gt;&lt;font style=&quot;vertical-align: inherit&quot;&gt;nomProd &lt;/font&gt;&lt;/font&gt;&lt;br&gt;&lt;font style=&quot;vertical-align: inherit&quot;&gt;&lt;font style=&quot;vertical-align: inherit&quot;&gt;quantiteProd &lt;br&gt;&lt;/font&gt;&lt;/font&gt;&lt;font style=&quot;vertical-align: inherit&quot;&gt;&lt;font style=&quot;vertical-align: inherit&quot;&gt;pointureProd&lt;/font&gt;&lt;/font&gt;&lt;br&gt;&lt;font style=&quot;vertical-align: inherit&quot;&gt;&lt;font style=&quot;vertical-align: inherit&quot;&gt;prixProd &lt;/font&gt;&lt;/font&gt;&lt;br&gt;&lt;font style=&quot;vertical-align: inherit&quot;&gt;&lt;font style=&quot;vertical-align: inherit&quot;&gt;dateAjoutProd &lt;/font&gt;&lt;/font&gt;&lt;br&gt;&lt;font style=&quot;vertical-align: inherit&quot;&gt;&lt;font style=&quot;vertical-align: inherit&quot;&gt;dateModifProd &lt;br&gt;&lt;/font&gt;&lt;/font&gt;idFournisseur&lt;br&gt;&lt;font style=&quot;vertical-align: inherit&quot;&gt;&lt;font style=&quot;vertical-align: inherit&quot;&gt;idTypeProd&lt;/font&gt;&lt;/font&gt;" style="text;html=1;strokeColor=none;fillColor=none;align=center;verticalAlign=middle;whiteSpace=wrap;rounded=0;" parent="1" vertex="1">
          <mxGeometry x="430" y="-482.5" width="40" height="25" as="geometry" />
        </mxCell>
        <mxCell id="UMJbszNfp7T79C8Wnxz_-30" value="" style="rounded=0;whiteSpace=wrap;html=1;" parent="1" vertex="1">
          <mxGeometry x="290" y="-670" width="120" height="95" as="geometry" />
        </mxCell>
        <mxCell id="UMJbszNfp7T79C8Wnxz_-31" value="TypeProduit" style="text;html=1;strokeColor=none;fillColor=none;align=center;verticalAlign=middle;whiteSpace=wrap;rounded=0;" parent="1" vertex="1">
          <mxGeometry x="330" y="-665" width="40" height="20" as="geometry" />
        </mxCell>
        <mxCell id="UMJbszNfp7T79C8Wnxz_-34" value="idTypeProd&lt;br&gt;genreProd&lt;br&gt;typeProd&lt;br&gt;matiereProd" style="text;html=1;strokeColor=none;fillColor=none;align=center;verticalAlign=middle;whiteSpace=wrap;rounded=0;" parent="1" vertex="1">
          <mxGeometry x="330" y="-625" width="40" height="20" as="geometry" />
        </mxCell>
        <mxCell id="9tUXxpxgBFinTvFr-a4o-15" value="" style="endArrow=none;html=1;entryX=0.625;entryY=0.989;entryDx=0;entryDy=0;entryPerimeter=0;exitX=0.008;exitY=0.618;exitDx=0;exitDy=0;exitPerimeter=0;" edge="1" parent="1" source="UMJbszNfp7T79C8Wnxz_-25" target="UMJbszNfp7T79C8Wnxz_-30">
          <mxGeometry width="50" height="50" relative="1" as="geometry">
            <mxPoint x="70" y="-398.03" as="sourcePoint" />
            <mxPoint x="120" y="-448.03" as="targetPoint" />
          </mxGeometry>
        </mxCell>
        <mxCell id="9tUXxpxgBFinTvFr-a4o-19" value="" style="endArrow=none;html=1;exitX=0.992;exitY=0.465;exitDx=0;exitDy=0;exitPerimeter=0;entryX=-0.025;entryY=0.359;entryDx=0;entryDy=0;entryPerimeter=0;" edge="1" parent="1" source="UMJbszNfp7T79C8Wnxz_-25" target="UMJbszNfp7T79C8Wnxz_-19">
          <mxGeometry width="50" height="50" relative="1" as="geometry">
            <mxPoint x="460" y="-220" as="sourcePoint" />
            <mxPoint x="510" y="-270" as="targetPoint" />
          </mxGeometry>
        </mxCell>
        <mxCell id="9tUXxpxgBFinTvFr-a4o-20" value="" style="ellipse;whiteSpace=wrap;html=1;" vertex="1" parent="1">
          <mxGeometry x="220" y="-320" width="120" height="80" as="geometry" />
        </mxCell>
        <mxCell id="9tUXxpxgBFinTvFr-a4o-21" value="achete" style="text;html=1;strokeColor=none;fillColor=none;align=center;verticalAlign=middle;whiteSpace=wrap;rounded=0;" vertex="1" parent="1">
          <mxGeometry x="260" y="-290" width="40" height="20" as="geometry" />
        </mxCell>
        <mxCell id="9tUXxpxgBFinTvFr-a4o-22" value="" style="endArrow=none;html=1;exitX=0.5;exitY=0;exitDx=0;exitDy=0;entryX=0.633;entryY=1;entryDx=0;entryDy=0;entryPerimeter=0;" edge="1" parent="1" source="9tUXxpxgBFinTvFr-a4o-20" target="UMJbszNfp7T79C8Wnxz_-25">
          <mxGeometry width="50" height="50" relative="1" as="geometry">
            <mxPoint x="380" y="-430" as="sourcePoint" />
            <mxPoint x="430" y="-480" as="targetPoint" />
          </mxGeometry>
        </mxCell>
        <mxCell id="9tUXxpxgBFinTvFr-a4o-23" value="" style="endArrow=none;html=1;exitX=1.007;exitY=0.303;exitDx=0;exitDy=0;exitPerimeter=0;" edge="1" parent="1" source="UMJbszNfp7T79C8Wnxz_-7" target="9tUXxpxgBFinTvFr-a4o-20">
          <mxGeometry width="50" height="50" relative="1" as="geometry">
            <mxPoint x="180" y="-170" as="sourcePoint" />
            <mxPoint x="230" y="-220" as="targetPoint" />
          </mxGeometry>
        </mxCell>
        <mxCell id="9tUXxpxgBFinTvFr-a4o-24" value="" style="endArrow=none;html=1;exitX=0.5;exitY=0;exitDx=0;exitDy=0;" edge="1" parent="1" source="WEUfVhvp38oiTWdaOPh4-2" target="9tUXxpxgBFinTvFr-a4o-20">
          <mxGeometry width="50" height="50" relative="1" as="geometry">
            <mxPoint x="404" y="-137.5" as="sourcePoint" />
            <mxPoint x="454" y="-187.5" as="targetPoint" />
          </mxGeometry>
        </mxCell>
        <mxCell id="9tUXxpxgBFinTvFr-a4o-25" value="(1,n)" style="text;html=1;strokeColor=none;fillColor=none;align=center;verticalAlign=middle;whiteSpace=wrap;rounded=0;" vertex="1" parent="1">
          <mxGeometry x="140" y="-170" width="40" height="20" as="geometry" />
        </mxCell>
        <mxCell id="9tUXxpxgBFinTvFr-a4o-26" value="(1,n)" style="text;html=1;strokeColor=none;fillColor=none;align=center;verticalAlign=middle;whiteSpace=wrap;rounded=0;" vertex="1" parent="1">
          <mxGeometry x="380" y="-137.5" width="40" height="20" as="geometry" />
        </mxCell>
        <mxCell id="9tUXxpxgBFinTvFr-a4o-27" value="(1,n)" style="text;html=1;strokeColor=none;fillColor=none;align=center;verticalAlign=middle;whiteSpace=wrap;rounded=0;" vertex="1" parent="1">
          <mxGeometry x="340" y="-390" width="40" height="20" as="geometry" />
        </mxCell>
        <mxCell id="9tUXxpxgBFinTvFr-a4o-28" value="" style="endArrow=classic;html=1;exitX=-0.014;exitY=0.664;exitDx=0;exitDy=0;exitPerimeter=0;entryX=1.007;entryY=0.703;entryDx=0;entryDy=0;entryPerimeter=0;" edge="1" parent="1" source="WEUfVhvp38oiTWdaOPh4-2" target="UMJbszNfp7T79C8Wnxz_-7">
          <mxGeometry width="50" height="50" relative="1" as="geometry">
            <mxPoint x="370" y="-170" as="sourcePoint" />
            <mxPoint x="420" y="-220" as="targetPoint" />
          </mxGeometry>
        </mxCell>
        <mxCell id="9tUXxpxgBFinTvFr-a4o-29" value="" style="rounded=0;whiteSpace=wrap;html=1;" vertex="1" parent="1">
          <mxGeometry x="870" y="-482.5" width="120" height="112.5" as="geometry" />
        </mxCell>
        <mxCell id="9tUXxpxgBFinTvFr-a4o-30" value="Pays" style="text;html=1;strokeColor=none;fillColor=none;align=center;verticalAlign=middle;whiteSpace=wrap;rounded=0;" vertex="1" parent="1">
          <mxGeometry x="910" y="-470" width="40" height="20" as="geometry" />
        </mxCell>
        <mxCell id="9tUXxpxgBFinTvFr-a4o-31" value="idPays&lt;br&gt;paysFabrication" style="text;html=1;strokeColor=none;fillColor=none;align=center;verticalAlign=middle;whiteSpace=wrap;rounded=0;" vertex="1" parent="1">
          <mxGeometry x="910" y="-436.25" width="40" height="20" as="geometry" />
        </mxCell>
        <mxCell id="9tUXxpxgBFinTvFr-a4o-34" value="" style="endArrow=none;html=1;entryX=0.5;entryY=1;entryDx=0;entryDy=0;exitX=1.017;exitY=0.628;exitDx=0;exitDy=0;exitPerimeter=0;" edge="1" parent="1" source="UMJbszNfp7T79C8Wnxz_-19" target="9tUXxpxgBFinTvFr-a4o-29">
          <mxGeometry width="50" height="50" relative="1" as="geometry">
            <mxPoint x="580" y="-230" as="sourcePoint" />
            <mxPoint x="630" y="-280" as="targetPoint" />
          </mxGeometry>
        </mxCell>
        <mxCell id="9tUXxpxgBFinTvFr-a4o-35" value="(1,n)" style="text;html=1;strokeColor=none;fillColor=none;align=center;verticalAlign=middle;whiteSpace=wrap;rounded=0;" vertex="1" parent="1">
          <mxGeometry x="300" y="460" width="40" height="20" as="geometry" />
        </mxCell>
        <mxCell id="9tUXxpxgBFinTvFr-a4o-36" value="(1,n)" style="text;html=1;strokeColor=none;fillColor=none;align=center;verticalAlign=middle;whiteSpace=wrap;rounded=0;" vertex="1" parent="1">
          <mxGeometry x="390" y="340" width="40" height="20" as="geometry" />
        </mxCell>
        <mxCell id="9tUXxpxgBFinTvFr-a4o-37" value="(1,n)" style="text;html=1;strokeColor=none;fillColor=none;align=center;verticalAlign=middle;whiteSpace=wrap;rounded=0;" vertex="1" parent="1">
          <mxGeometry x="540" y="390" width="40" height="20" as="geometry" />
        </mxCell>
      </root>
    </mxGraphModel>
  </diagram>
</mxfile>
